<?xml version="1.0" encoding="UTF-8" standalone="no"?>
<!-- Created with Inkscape (http://www.inkscape.org/) -->

<svg
   xmlns:dc="http://purl.org/dc/elements/1.1/"
   xmlns:cc="http://creativecommons.org/ns#"
   xmlns:rdf="http://www.w3.org/1999/02/22-rdf-syntax-ns#"
   xmlns:svg="http://www.w3.org/2000/svg"
   xmlns="http://www.w3.org/2000/svg"
   xmlns:sodipodi="http://sodipodi.sourceforge.net/DTD/sodipodi-0.dtd"
   xmlns:inkscape="http://www.inkscape.org/namespaces/inkscape"
   width="64px"
   height="64px"
   id="svg4978"
   version="1.1"
   inkscape:version="0.48.5 r10040"
   sodipodi:docname="新建文档 16">
  <defs
     id="defs4980" />
  <sodipodi:namedview
     id="base"
     pagecolor="#ffffff"
     bordercolor="#666666"
     borderopacity="1.0"
     inkscape:pageopacity="0.0"
     inkscape:pageshadow="2"
     inkscape:zoom="5.5"
     inkscape:cx="0.81818182"
     inkscape:cy="32"
     inkscape:current-layer="layer1"
     showgrid="true"
     inkscape:document-units="px"
     inkscape:grid-bbox="true"
     inkscape:window-width="1920"
     inkscape:window-height="1015"
     inkscape:window-x="0"
     inkscape:window-y="27"
     inkscape:window-maximized="1" />
  <metadata
     id="metadata4983">
    <rdf:RDF>
      <cc:Work
         rdf:about="">
        <dc:format>image/svg+xml</dc:format>
        <dc:type
           rdf:resource="http://purl.org/dc/dcmitype/StillImage" />
        <dc:title></dc:title>
      </cc:Work>
    </rdf:RDF>
  </metadata>
  <g
     id="layer1"
     inkscape:label="Layer 1"
     inkscape:groupmode="layer">
    <path
       style="fill:#aaaaaa;fill-opacity:1;stroke:none"
       d="m 12.545454,15.090909 35.09091,0.181818 c 5.362841,-0.28875 5.212358,2.517756 5.363637,5.545455 L 52.818183,32 l -6.636365,0 0.05556,-7.827876 c 0,-2.868808 -1.68673,-3.444851 -4.055562,-3.444851 -8.55807,-0.19137 -19.325571,-1e-6 -29.636364,-1e-6 -0.01202,-3.331605 0.123377,-3.047618 2e-6,-5.636363 z"
       id="path4988"
       inkscape:connector-curvature="0"
       sodipodi:nodetypes="ccccccccc" />
    <path
       style="fill:#aaaaaa;fill-opacity:1;stroke:none"
       d="m 40.181819,31.090909 18.363636,0 L 49.272728,38 z"
       id="path5536"
       inkscape:connector-curvature="0" />
    <path
       style="fill:#aaaaaa;fill-opacity:1;stroke:none"
       d="M 53.72689,47.272727 18.63598,47.090909 c -5.362841,0.28875 -5.212358,-2.517756 -5.363637,-5.545455 l 0.181818,-11.181818 6.636365,0 -0.05556,7.827876 c 0,2.868808 1.68673,3.444851 4.055562,3.444851 8.55807,0.19137 19.325571,10e-7 29.636364,10e-7 0.01202,3.331605 -0.123377,3.047618 -2e-6,5.636363 z"
       id="path4988-3"
       inkscape:connector-curvature="0"
       sodipodi:nodetypes="ccccccccc" />
    <path
       style="fill:#aaaaaa;fill-opacity:1;stroke:none"
       d="m 26.090525,31.272727 -18.3636365,0 9.2727275,-6.909091 z"
       id="path5536-6"
       inkscape:connector-curvature="0" />
  </g>
</svg>
